<mxfile host="drawio-plugin" modified="2021-05-18T21:08:45.082Z" agent="5.0 (Windows NT 6.2; Win64; x64) AppleWebKit/537.36 (KHTML, like Gecko) Chrome/87.0.4280.141 Safari/537.36" version="14.6.6" etag="7Wcw-NPnEm7lWcKyPzAm" type="embed"><diagram id="Ac-DoRMtMBz5-aWE3l1B" name="Page-1"><mxGraphModel dx="1013" dy="359" grid="1" gridSize="10" guides="1" tooltips="1" connect="1" arrows="1" fold="1" page="1" pageScale="1" pageWidth="850" pageHeight="1100" math="0" shadow="0"><root><mxCell id="0"/><mxCell id="1" parent="0"/><mxCell id="2" value="«interface»&lt;br&gt;&lt;b&gt;Client&lt;/b&gt;" style="html=1;" vertex="1" parent="1"><mxGeometry x="265" y="85" width="110" height="50" as="geometry"/></mxCell><mxCell id="3" value="Invoker" style="swimlane;fontStyle=1;align=center;verticalAlign=top;childLayout=stackLayout;horizontal=1;startSize=26;horizontalStack=0;resizeParent=1;resizeParentMax=0;resizeLast=0;collapsible=1;marginBottom=0;" vertex="1" parent="1"><mxGeometry x="440" y="65" width="160" height="90" as="geometry"/></mxCell><mxCell id="5" value="" style="line;strokeWidth=1;fillColor=none;align=left;verticalAlign=middle;spacingTop=-1;spacingLeft=3;spacingRight=3;rotatable=0;labelPosition=right;points=[];portConstraint=eastwest;" vertex="1" parent="3"><mxGeometry y="26" width="160" height="8" as="geometry"/></mxCell><mxCell id="6" value="+ set_on_start()&#10;+ set_on_finish()&#10;+ do_something_important()" style="text;strokeColor=none;fillColor=none;align=left;verticalAlign=top;spacingLeft=4;spacingRight=4;overflow=hidden;rotatable=0;points=[[0,0.5],[1,0.5]];portConstraint=eastwest;" vertex="1" parent="3"><mxGeometry y="34" width="160" height="56" as="geometry"/></mxCell><mxCell id="7" value="Command" style="swimlane;fontStyle=1;align=center;verticalAlign=top;childLayout=stackLayout;horizontal=1;startSize=26;horizontalStack=0;resizeParent=1;resizeParentMax=0;resizeLast=0;collapsible=1;marginBottom=0;" vertex="1" parent="1"><mxGeometry x="450" y="200" width="140" height="80" as="geometry"/></mxCell><mxCell id="9" value="" style="line;strokeWidth=1;fillColor=none;align=left;verticalAlign=middle;spacingTop=-1;spacingLeft=3;spacingRight=3;rotatable=0;labelPosition=right;points=[];portConstraint=eastwest;" vertex="1" parent="7"><mxGeometry y="26" width="140" height="8" as="geometry"/></mxCell><mxCell id="10" value="+ execute()" style="text;strokeColor=none;fillColor=none;align=left;verticalAlign=top;spacingLeft=4;spacingRight=4;overflow=hidden;rotatable=0;points=[[0,0.5],[1,0.5]];portConstraint=eastwest;" vertex="1" parent="7"><mxGeometry y="34" width="140" height="46" as="geometry"/></mxCell><mxCell id="11" value="SimpleCommand" style="swimlane;fontStyle=1;align=center;verticalAlign=top;childLayout=stackLayout;horizontal=1;startSize=26;horizontalStack=0;resizeParent=1;resizeParentMax=0;resizeLast=0;collapsible=1;marginBottom=0;" vertex="1" parent="1"><mxGeometry x="360" y="320" width="160" height="60" as="geometry"/></mxCell><mxCell id="13" value="" style="line;strokeWidth=1;fillColor=none;align=left;verticalAlign=middle;spacingTop=-1;spacingLeft=3;spacingRight=3;rotatable=0;labelPosition=right;points=[];portConstraint=eastwest;" vertex="1" parent="11"><mxGeometry y="26" width="160" height="8" as="geometry"/></mxCell><mxCell id="14" value="+execute()" style="text;strokeColor=none;fillColor=none;align=left;verticalAlign=top;spacingLeft=4;spacingRight=4;overflow=hidden;rotatable=0;points=[[0,0.5],[1,0.5]];portConstraint=eastwest;" vertex="1" parent="11"><mxGeometry y="34" width="160" height="26" as="geometry"/></mxCell><mxCell id="15" value="ComplexCommand" style="swimlane;fontStyle=1;align=center;verticalAlign=top;childLayout=stackLayout;horizontal=1;startSize=26;horizontalStack=0;resizeParent=1;resizeParentMax=0;resizeLast=0;collapsible=1;marginBottom=0;" vertex="1" parent="1"><mxGeometry x="520" y="320" width="160" height="60" as="geometry"/></mxCell><mxCell id="17" value="" style="line;strokeWidth=1;fillColor=none;align=left;verticalAlign=middle;spacingTop=-1;spacingLeft=3;spacingRight=3;rotatable=0;labelPosition=right;points=[];portConstraint=eastwest;" vertex="1" parent="15"><mxGeometry y="26" width="160" height="8" as="geometry"/></mxCell><mxCell id="18" value="+execute()" style="text;strokeColor=none;fillColor=none;align=left;verticalAlign=top;spacingLeft=4;spacingRight=4;overflow=hidden;rotatable=0;points=[[0,0.5],[1,0.5]];portConstraint=eastwest;" vertex="1" parent="15"><mxGeometry y="34" width="160" height="26" as="geometry"/></mxCell><mxCell id="19" value="Receiver" style="swimlane;fontStyle=1;align=center;verticalAlign=top;childLayout=stackLayout;horizontal=1;startSize=26;horizontalStack=0;resizeParent=1;resizeParentMax=0;resizeLast=0;collapsible=1;marginBottom=0;" vertex="1" parent="1"><mxGeometry x="250" y="200" width="140" height="80" as="geometry"/></mxCell><mxCell id="21" value="" style="line;strokeWidth=1;fillColor=none;align=left;verticalAlign=middle;spacingTop=-1;spacingLeft=3;spacingRight=3;rotatable=0;labelPosition=right;points=[];portConstraint=eastwest;" vertex="1" parent="19"><mxGeometry y="26" width="140" height="8" as="geometry"/></mxCell><mxCell id="22" value="+ do_something()&#10;+ do_something_else()" style="text;strokeColor=none;fillColor=none;align=left;verticalAlign=top;spacingLeft=4;spacingRight=4;overflow=hidden;rotatable=0;points=[[0,0.5],[1,0.5]];portConstraint=eastwest;" vertex="1" parent="19"><mxGeometry y="34" width="140" height="46" as="geometry"/></mxCell><mxCell id="24" value="Extends" style="endArrow=block;endSize=16;endFill=0;html=1;exitX=0.5;exitY=0;exitDx=0;exitDy=0;entryX=0.496;entryY=1.004;entryDx=0;entryDy=0;entryPerimeter=0;" edge="1" parent="1" source="11" target="10"><mxGeometry width="160" relative="1" as="geometry"><mxPoint x="680" y="270" as="sourcePoint"/><mxPoint x="840" y="270" as="targetPoint"/><Array as="points"><mxPoint x="440" y="310"/><mxPoint x="519" y="310"/></Array></mxGeometry></mxCell><mxCell id="25" value="Extends" style="endArrow=block;endSize=16;endFill=0;html=1;exitX=0.5;exitY=0;exitDx=0;exitDy=0;entryX=0.502;entryY=1.004;entryDx=0;entryDy=0;entryPerimeter=0;" edge="1" parent="1" source="15" target="10"><mxGeometry width="160" relative="1" as="geometry"><mxPoint x="660" y="270" as="sourcePoint"/><mxPoint x="820" y="270" as="targetPoint"/><Array as="points"><mxPoint x="600" y="310"/><mxPoint x="520" y="310"/></Array></mxGeometry></mxCell><mxCell id="27" value="" style="endArrow=diamondThin;endFill=1;endSize=24;html=1;entryX=0.5;entryY=1;entryDx=0;entryDy=0;entryPerimeter=0;exitX=0.5;exitY=0;exitDx=0;exitDy=0;" edge="1" parent="1" source="7" target="6"><mxGeometry width="160" relative="1" as="geometry"><mxPoint x="410" y="180" as="sourcePoint"/><mxPoint x="570" y="180" as="targetPoint"/></mxGeometry></mxCell><mxCell id="30" value="" style="endArrow=open;endFill=1;endSize=12;html=1;exitX=0.5;exitY=1;exitDx=0;exitDy=0;entryX=0.5;entryY=0;entryDx=0;entryDy=0;" edge="1" parent="1" source="2" target="19"><mxGeometry width="160" relative="1" as="geometry"><mxPoint x="300" y="170" as="sourcePoint"/><mxPoint x="460" y="170" as="targetPoint"/></mxGeometry></mxCell><mxCell id="31" value="" style="endArrow=open;endFill=1;endSize=12;html=1;exitX=1;exitY=0.5;exitDx=0;exitDy=0;" edge="1" parent="1" source="2"><mxGeometry width="160" relative="1" as="geometry"><mxPoint x="390" y="110" as="sourcePoint"/><mxPoint x="440" y="110" as="targetPoint"/></mxGeometry></mxCell><mxCell id="32" value="" style="endArrow=open;endFill=1;endSize=12;html=1;exitX=0.5;exitY=1;exitDx=0;exitDy=0;exitPerimeter=0;entryX=0.496;entryY=1.004;entryDx=0;entryDy=0;entryPerimeter=0;" edge="1" parent="1" source="18" target="22"><mxGeometry width="160" relative="1" as="geometry"><mxPoint x="430" y="440" as="sourcePoint"/><mxPoint x="590" y="440" as="targetPoint"/><Array as="points"><mxPoint x="600" y="390"/><mxPoint x="440" y="390"/><mxPoint x="319" y="390"/></Array></mxGeometry></mxCell><mxCell id="33" value="Use" style="endArrow=open;endSize=12;dashed=1;html=1;exitX=0.75;exitY=1;exitDx=0;exitDy=0;entryX=0.25;entryY=0;entryDx=0;entryDy=0;" edge="1" parent="1" source="2" target="11"><mxGeometry x="0.8444" width="160" relative="1" as="geometry"><mxPoint x="100" y="180" as="sourcePoint"/><mxPoint x="260" y="180" as="targetPoint"/><Array as="points"><mxPoint x="348" y="170"/><mxPoint x="400" y="170"/></Array><mxPoint as="offset"/></mxGeometry></mxCell><mxCell id="35" value="Use" style="endArrow=open;endSize=12;dashed=1;html=1;exitX=0.25;exitY=1;exitDx=0;exitDy=0;entryX=0.75;entryY=1;entryDx=0;entryDy=0;entryPerimeter=0;" edge="1" parent="1" source="2" target="18"><mxGeometry x="0.8496" width="160" relative="1" as="geometry"><mxPoint x="340" y="220" as="sourcePoint"/><mxPoint x="650" y="410" as="targetPoint"/><Array as="points"><mxPoint x="293" y="170"/><mxPoint x="240" y="170"/><mxPoint x="240" y="400"/><mxPoint x="430" y="400"/><mxPoint x="640" y="400"/></Array><mxPoint as="offset"/></mxGeometry></mxCell></root></mxGraphModel></diagram></mxfile>